<?xml version="1.0" encoding="utf-8"?>
<!-- Generator: Adobe Illustrator 16.0.0, SVG Export Plug-In . SVG Version: 6.00 Build 0)  -->
<!DOCTYPE svg PUBLIC "-//W3C//DTD SVG 1.1//EN" "http://www.w3.org/Graphics/SVG/1.1/DTD/svg11.dtd">
<svg version="1.1" id="Layer_1" xmlns="http://www.w3.org/2000/svg" xmlns:xlink="http://www.w3.org/1999/xlink" x="0px" y="0px"
	 width="452.98px" height="965.645px" viewBox="0 0 452.98 965.645" enable-background="new 0 0 452.98 965.645"
	 xml:space="preserve">
<g>
	<g>
		<ellipse fill="#DDDDDD" cx="242.581" cy="925.246" rx="161.575" ry="24.193"/>
	</g>
	<g>
		<path fill="#1D2023" d="M178.726,478.69c0,0-8.885,374.61-9.52,382.226h25.382l62.043-316.01l61.062,324.895h24.748
			l-19.264-367.188l-0.249-42.539l-144.204,4.244L178.726,478.69z"/>
	</g>
	<g>
		<path fill="#FAA18B" d="M127.989,280.612c0,0-7.327,0.793-12.245,2.697c-4.919,1.904-27.287-65.359-31.253-77.891
			c-3.966-12.532-4.917-21.877-2.062-40.915c2.855-19.036,7.298-36.186,5.235-42.214c-2.063-6.029-7.457,10.629-8.566,14.119
			c-1.11,3.49-2.697-21.734-6.505-25.065c-3.807-3.332-1.745,22.527-1.745,23.637c0,1.111-3.966-17.292-6.822-20.782
			c-2.855-3.489-2.538,14.754-2.062,21.1c0.476,6.345-2.855-11.264-5.711-15.23c-2.856-3.966-2.539,11.264-1.746,16.499
			c0.793,5.235-2.38-8.09-3.332-8.726c-0.951-0.634-3.807,4.917-1.427,15.547c0,0,11.541,34.941,12.493,50.289
			c0.952,15.349,6.703,57.11,10.193,79.637c3.49,22.526,13.722,59.808,32.759,61.474c19.036,1.666,30.221-1.666,30.221-1.666
			l1.071-0.357C136.487,332.765,122.347,291.519,127.989,280.612z"/>
	</g>
	<g>
		<path fill="#707070" d="M251.292,500.999l-0.914-1.67c0.148-0.082,14.745-8.229,16.561-21.987l1.888,0.25
			C266.883,492.318,251.927,500.652,251.292,500.999z"/>
	</g>
	<g>
		<path fill="#FAA18B" d="M125.028,281.024c0,0,3.963-0.333,11.459-3.268c7.495-2.935,12.731,49.06,12.731,49.06l-8.012,4.798
			c0,0-4.324,1.168-6.026,1.574c-1.703,0.405-13.149-20.472-13.149-20.472l-3.113-26.632L125.028,281.024z"/>
	</g>
	<g>
		
			<rect x="227.248" y="495.023" transform="matrix(0.0824 0.9966 -0.9966 0.0824 724.1239 205.4495)" fill="#707070" width="46.48" height="1.905"/>
	</g>
	<g>
		<path fill="#707070" d="M251.438,505l-0.558-1.821c0.201-0.062,20.066-6.477,23.393-32.518l1.89,0.241
			C272.674,498.206,251.649,504.935,251.438,505z"/>
	</g>
	<g>
		
			<rect x="178.724" y="473.995" transform="matrix(0.9999 -0.0138 0.0138 0.9999 -6.5689 3.4937)" fill="#0D0F11" width="143.253" height="9.281"/>
	</g>
	<g>
		<path fill="#FAA18B" d="M390.072,373.059c0,0-6.464-15.231-11.461-19.612c-4.997-4.382-23.915,37.618-23.915,37.618l-1.904,6.127
			l-0.257,0.913c0,0,4.561,1.947,5.324,3.353c0.764,1.406,17.382-10.354,17.382-10.354L390.072,373.059z"/>
	</g>
	<g>
		<path fill="#6F36BC" d="M385.273,359.533c0,0-0.011,0.055-0.022,0.153c-0.132,1.606-0.688,3.475-1.562,5.518
			c-0.065,0.175-0.143,0.35-0.209,0.514c-0.885,2-2.054,4.152-3.42,6.371c-0.011,0.022-0.021,0.033-0.032,0.055
			c-0.011,0.011-0.011,0.021-0.022,0.033c-2.076,3.354-4.59,6.851-7.256,10.217c-0.054,0.077-0.109,0.143-0.164,0.208
			c-2.731,3.442-5.627,6.73-8.337,9.55l-0.011,0.011c-3.948,4.109-7.518,7.182-9.724,8.3c-0.185,0.097-0.368,0.188-0.548,0.267
			l-0.065,0.032h-0.013c-0.196,0.077-0.382,0.131-0.557,0.153c-0.021,0.011-0.031,0.011-0.044,0.011
			c-0.251,0.043-0.458,0.021-0.622-0.055c-0.088-0.032-0.164-0.087-0.229-0.164c-0.515-0.612-1.354-1.486-2.372-2.502
			c0,0,0,0,0-0.011c-4.577-4.601-12.861-12.25-12.861-12.25c-2.853,18.325,0,90.194,0,90.194
			c-10.315,0.612-125.675,2.131-156.141,2.525h-0.557c-6.546-0.459-10.437-22.521-10.72-24.226c0-0.011-0.011-0.033-0.011-0.044
			v-0.065c-0.82-8.064-1.388-17.746-1.835-31.252c-0.951-28.871-3.497-97.571-3.497-97.571c-6.185,4.284-26.412,9.758-26.412,9.758
			s-18.325-54.495-5.474-59.248c12.85-4.764,6.196-2.863,34.268-20.947c28.083-18.085,62.821-25.702,62.821-25.702
			c9.803-2.568,38.794-0.71,51.874,1.913c13.09,2.611,18.095,4.994,44.026,19.505c25.941,14.522,28.323,33.318,36.65,51.643
			c6.326,13.932,16.368,39.678,20.827,51.228l0.634,1.661l0.393,1.016l0.46,1.202l0.25,0.667L385.273,359.533z"/>
	</g>
	<g>
		<path fill="#6F36BC" d="M223.759,215.45c0,0-2.856-0.059-7.139,9.103s-9.661,9.252-28.037,18.83
			c-18.375,9.579-31.165,17.763-35.841,21.019c-4.676,3.257,5.2,29.06,5.2,29.06s28.08,13.64,48.068,17.923
			c19.989,4.283,96.455,18.244,110.731-2.538c14.277-20.782,34.377-32.472,34.377-32.472s-7.849-16.479-26.507-26.109
			c-18.657-9.63-27.151-13.807-32.105-16.161c-4.953-2.354-9.548-2.061-15.937-16.96l-1.789-3.002l-4.837,5.314L223.759,215.45z"/>
	</g>
	<g>
		<path fill="#8052D8" d="M230.33,256.601c0,0-3.401,2.734-6.203,5.002c-2.801,2.269-5.469,3.602-7.871,4.536
			c0,0,0.467-3.869-1.468-9.539c-1.934-5.67-3.869-12.874-4.336-16.543c-0.466-3.669-0.232-4.752,2.988-10.765
			c3.22-6.013,4.521-8.808,6.011-10.553c1.49-1.745,2.342-2.168,3.742-2.666c1.401-0.497,1.334,8.775,1.334,8.775l4.069,16.248
			l5.869,11.835L230.33,256.601z"/>
	</g>
	<g>
		<path fill="#483091" d="M246.479,273.473c0,0-13.816-12.849-17.624-19.67c-3.807-6.822-8.249-16.34-8.883-20.941
			c-0.634-4.601-2.578-14.87,3.788-16.735c6.365-1.866,22.72,45.488,22.72,45.488l2.596,5.997L246.479,273.473z"/>
	</g>
	<g>
		<path fill="#1B2738" d="M289.048,177.639c0,0,0.212,0.456,0.555-2.167c0.341-2.623,1.748-18.704,1.766-23.645
			c0.02-4.941,0.286-14.354,0-18.602c-0.285-4.248-5.644-4.646-5.644-4.646s-0.171-1.853-0.854-3.849
			c-0.685-1.996-2.681-5.815-5.075-8.78c-2.394-2.964-10.319-7.811-15.394-8.438c-5.073-0.627-11.916-0.57-16.248-0.627
			c-4.334-0.057-9.064,0.171-13.057,1.71c-3.991,1.54-5.245,2.565-11.175,6.728c-5.929,4.162-8.665,11.5-10.642,15.528
			c-1.977,4.029-3.041,7.982-2.791,14.824c0.25,6.841,1.153,17.079,1.153,17.079"/>
	</g>
	<g>
		<path fill="#47298E" d="M246.067,281.366c0,0-2.46,10.508-1.983,27.959c0.476,17.451-0.061,168.514-0.061,168.514l14.512-0.208
			c0,0,0.49-170.685,0-185.915c-0.491-15.229-0.869-20.714-0.869-20.714l-1.009-2.725L246.067,281.366z"/>
	</g>
	<g>
		<path fill="#9668E0" d="M244.164,281.366c0,0-2.459,10.508-1.983,27.959c0.477,17.451-0.062,168.514-0.062,168.514l14.513-0.208
			c0,0,0.49-170.685,0-185.915c-0.492-15.229-0.869-20.714-0.869-20.714l-1.01-2.725L244.164,281.366z"/>
	</g>
	<g>
		<path fill="#47298E" d="M282.237,255.785c0,0-26.77,12.017-38.073,25.581c0,0,2.945-11.79,5.954-15.87
			c3.008-4.079,1.283-3.926,11.03-8.207c9.746-4.281,9.671-4.367,10.439-7.097C272.357,247.463,282.237,255.785,282.237,255.785z"/>
	</g>
	<g>
		<polygon fill="#8052D8" points="277.611,256.676 268.376,249.776 271.945,243.083 278.519,242.668 		"/>
	</g>
	<g>
		<polygon fill="#47298E" points="248.922,270.459 246.067,259.077 261.296,251.978 271.326,252.613 269.902,258.839 		"/>
	</g>
	<g>
		<path fill="#1B2738" d="M222.174,161.485l-0.836,12.39l-5.626,1.293L211,167.414c0,0,0.966-3.344,0.431-7.193
			C210.895,156.372,222.174,161.485,222.174,161.485z"/>
	</g>
	<g>
		<path fill="#FAA18B" d="M223.01,204.642c0,0-0.818,16.164-2.087,22.509c-1.27,6.345,20.623,37.281,26.968,43.309
			c0,0,2.539-6.979,5.234-9.042c2.697-2.063,17.769-8.408,17.769-8.408s4.76-16.973,5.394-26.016c0.635-9.042,0-21.583,0-21.583
			l-3.172-9.352l-41.564-3.014L223.01,204.642z"/>
	</g>
	<g>
		<path fill="#1B2738" d="M289.968,171.934c0,0-0.091,4.562-1.668,8.426c-1.578,3.864-5.369,3.949-5.369,3.949l-3.934-1.425
			l-1.54-9.521l2.651-6.699l5.104-0.883L289.968,171.934z"/>
	</g>
	<g>
		<path fill="#EF7D6A" d="M223.144,203.91l-0.308,4.76c0,0,19.838,24.27,53.62,2.141l-0.405-7.535L223.144,203.91z"/>
	</g>
	<g>
		<path fill="#FAA18B" d="M217.917,186.114c0,0-0.456,9.882,1.824,13.075c2.281,3.193,5.474,8.97,9.882,11.707
			c4.41,2.737,8.362,5.169,12.468,5.625c4.104,0.456,20.22-1.063,27.213-5.472c6.995-4.409,8.668-8.287,9.276-9.692
			c0.605-1.406,2.888-12.353,2.888-12.353s2.09,0.949,3.345-0.191c1.255-1.14,3.079-7.411,3.764-9.236
			c0.684-1.824,0.569-6.385,0-7.981c-0.571-1.597-3.079-3.307-3.65-0.342c-0.569,2.964-0.569,7.183-1.596,9.35
			c-1.025,2.166-1.025,2.166-1.025,2.166s0.341-4.561,0.455-10.946s0.229-9.236-0.343-13.455c-0.569-4.219-1.14-5.359-1.14-8.666
			s-0.571-5.246-2.28-7.925c-1.711-2.68-11.213-13.285-19.574-13.095c-8.361,0.19-11.1,2.034-16.571,0.495
			c-5.474-1.54-9.979,0.056-13.284,2.907c-3.308,2.851-7.64,6.499-8.325,11.745c-0.684,5.246-1.197,7.64-1.596,12.201
			c-0.399,4.561-2.052,12.201-2.167,15.792c0,0-1.999-3.397-2.625-6.086c-0.006-0.024-0.413-1.173-0.763-1.65
			c-1.366-1.865-3.932-2.571-3.569,2.605c0.457,6.5,2.053,11.174,2.281,13.968C213.033,183.453,213.565,188.604,217.917,186.114z"/>
	</g>
	<g>
		<path fill="#FAA18B" d="M356.402,400.148c0,0,6.266,1.863-2.301,17.926c-8.567,16.063-24.985,45.213-30.935,50.21
			c-5.949,4.997-20.702,12.374-24.034,14.516c-3.332,2.141,17.608,20.94,20.464,23.32s0.952-4.759,17.371-21.179
			c16.42-16.419,53.541-49.02,57.824-58.3s15.23-14.277-9.518-63.535C385.274,363.105,378.85,381.983,356.402,400.148z"/>
	</g>
	<g>
		<path fill="#8052D8" d="M283.586,230.799c-2.34-4.777-3.967-7.257-4.845-9.023c-0.876-1.766-2.172-4.631-2.172-4.631
			s0.282,8.612-0.897,14.886c-1.043,5.547-3.738,17.311-4.346,19.959c0.597,0.447,3.292,2.465,6.285,4.686
			c3.394,2.52,7.164,5.296,8.671,6.328C286.282,263.003,285.926,235.576,283.586,230.799z"/>
	</g>
	<g>
		<g>
			<circle fill="#F5EEFF" cx="249.485" cy="290.21" r="3.292"/>
		</g>
		<g>
			<g>
				<g>
					<path fill="#6E3AB6" d="M248.786,290.464c0.466,0,0.93,0,1.396,0c0.409,0,0.409-0.507,0-0.507c-0.467,0-0.931,0-1.396,0
						C248.378,289.957,248.378,290.464,248.786,290.464L248.786,290.464z"/>
				</g>
			</g>
			<g>
				<g>
					<path fill="#6E3AB6" d="M249.738,290.908c0-0.465,0-0.93,0-1.395c0-0.411-0.507-0.411-0.507,0c0,0.465,0,0.93,0,1.395
						C249.231,291.318,249.738,291.318,249.738,290.908L249.738,290.908z"/>
				</g>
			</g>
		</g>
	</g>
	<g>
		<g>
			<circle fill="#F5EEFF" cx="249.485" cy="323.524" r="3.292"/>
		</g>
		<g>
			<g>
				<g>
					<path fill="#6E3AB6" d="M248.786,323.778c0.466,0,0.93,0,1.396,0c0.409,0,0.409-0.508,0-0.508c-0.467,0-0.931,0-1.396,0
						C248.378,323.271,248.378,323.778,248.786,323.778L248.786,323.778z"/>
				</g>
			</g>
			<g>
				<g>
					<path fill="#6E3AB6" d="M249.738,324.222c0-0.466,0-0.931,0-1.396c0-0.41-0.507-0.41-0.507,0c0,0.465,0,0.93,0,1.396
						C249.231,324.633,249.738,324.633,249.738,324.222L249.738,324.222z"/>
				</g>
			</g>
		</g>
	</g>
	<g>
		<g>
			<circle fill="#F5EEFF" cx="249.485" cy="356.839" r="3.292"/>
		</g>
		<g>
			<g>
				<g>
					<path fill="#6E3AB6" d="M248.786,357.092c0.466,0,0.93,0,1.396,0c0.409,0,0.409-0.507,0-0.507c-0.467,0-0.931,0-1.396,0
						C248.378,356.585,248.378,357.092,248.786,357.092L248.786,357.092z"/>
				</g>
			</g>
			<g>
				<g>
					<path fill="#6E3AB6" d="M249.738,357.537c0-0.465,0-0.93,0-1.396c0-0.41-0.507-0.41-0.507,0c0,0.465,0,0.93,0,1.396
						C249.231,357.947,249.738,357.947,249.738,357.537L249.738,357.537z"/>
				</g>
			</g>
		</g>
	</g>
	<g>
		<g>
			<circle fill="#F5EEFF" cx="249.485" cy="390.153" r="3.292"/>
		</g>
		<g>
			<g>
				<g>
					<path fill="#6E3AB6" d="M248.786,390.407c0.466,0,0.93,0,1.396,0c0.409,0,0.409-0.507,0-0.507c-0.467,0-0.931,0-1.396,0
						C248.378,389.9,248.378,390.407,248.786,390.407L248.786,390.407z"/>
				</g>
			</g>
			<g>
				<g>
					<path fill="#6E3AB6" d="M249.738,390.851c0-0.465,0-0.93,0-1.395c0-0.411-0.507-0.411-0.507,0c0,0.465,0,0.93,0,1.395
						C249.231,391.261,249.738,391.261,249.738,390.851L249.738,390.851z"/>
				</g>
			</g>
		</g>
	</g>
	<g>
		<g>
			<circle fill="#F5EEFF" cx="249.485" cy="423.467" r="3.292"/>
		</g>
		<g>
			<g>
				<g>
					<path fill="#6E3AB6" d="M248.786,423.721c0.466,0,0.93,0,1.396,0c0.409,0,0.409-0.507,0-0.507c-0.467,0-0.931,0-1.396,0
						C248.378,423.214,248.378,423.721,248.786,423.721L248.786,423.721z"/>
				</g>
			</g>
			<g>
				<g>
					<path fill="#6E3AB6" d="M249.738,424.165c0-0.465,0-0.93,0-1.395c0-0.411-0.507-0.411-0.507,0c0,0.464,0,0.929,0,1.395
						C249.231,424.576,249.738,424.576,249.738,424.165L249.738,424.165z"/>
				</g>
			</g>
		</g>
	</g>
	<g>
		<g>
			<circle fill="#F5EEFF" cx="249.485" cy="456.783" r="3.292"/>
		</g>
		<g>
			<g>
				<g>
					<path fill="#6E3AB6" d="M248.786,457.036c0.466,0,0.93,0,1.396,0c0.409,0,0.409-0.507,0-0.507c-0.467,0-0.931,0-1.396,0
						C248.378,456.529,248.378,457.036,248.786,457.036L248.786,457.036z"/>
				</g>
			</g>
			<g>
				<g>
					<path fill="#6E3AB6" d="M249.738,457.479c0-0.465,0-0.93,0-1.395c0-0.41-0.507-0.41-0.507,0c0,0.465,0,0.93,0,1.395
						C249.231,457.89,249.738,457.89,249.738,457.479L249.738,457.479z"/>
				</g>
			</g>
		</g>
	</g>
	<g>
		<path fill="#47298E" d="M137.65,274.046c0,0-5.867,1.701-6.943,3.207c-1.077,1.505-4.872,5.474-1.549,23.097
			c3.323,17.623,7.21,30.711,8.875,34.915l5.111-1.469C143.144,333.794,127.987,283.264,137.65,274.046z"/>
	</g>
	<g>
		<path fill="#707070" d="M177.737,510.976c0,0,0.455-0.4,1.251-1.101c0.397-0.343,0.88-0.76,1.434-1.237
			c0.555-0.471,1.162-1.028,1.853-1.585c1.334-1.164,2.89-2.52,4.557-3.974c0.41-0.365,0.838-0.726,1.251-1.109
			c0.406-0.394,0.825-0.778,1.258-1.157c0.878-0.745,1.676-1.59,2.523-2.387c0.849-0.793,1.642-1.635,2.454-2.438
			c0.732-0.866,1.555-1.639,2.255-2.464c0.658-0.852,1.403-1.608,2.002-2.397c0.568-0.807,1.178-1.536,1.693-2.242
			c0.457-0.734,0.913-1.397,1.321-1.993c0.42-0.59,0.664-1.16,0.94-1.606c0.519-0.907,0.849-1.434,0.849-1.434l0.184,0.052
			c0,0-0.199,0.566-0.545,1.556c-0.195,0.486-0.335,1.119-0.674,1.767c-0.319,0.658-0.678,1.4-1.071,2.21
			c-0.438,0.783-0.968,1.601-1.499,2.485c-0.551,0.87-1.233,1.719-1.885,2.635c-0.688,0.887-1.463,1.753-2.218,2.661
			c-0.818,0.848-1.623,1.738-2.481,2.575c-0.886,0.805-1.731,1.657-2.646,2.401c-0.892,0.771-1.779,1.517-2.671,2.2
			c-0.873,0.706-1.751,1.34-2.58,1.949c-0.826,0.614-1.64,1.146-2.373,1.663c-2.983,1.995-5.09,3.14-5.09,3.14L177.737,510.976z"/>
	</g>
	<g>
		<path fill="#FAA18B" d="M320.073,506.477c0,0-11.938-9.4-14.119-12.215c-2.181-2.816-8.463-10.401-8.463-10.401
			s1.94-1.298,3.943-2.409s18.44,19.79,18.44,19.79L320.073,506.477z"/>
	</g>
	<g>
		<path fill="#707070" d="M296.799,483.021c0,0,0.392,0.439,1.076,1.209c0.336,0.384,0.741,0.852,1.208,1.386
			c0.458,0.538,1.002,1.125,1.546,1.791c1.131,1.292,2.451,2.799,3.866,4.413c0.354,0.396,0.704,0.811,1.077,1.211
			c0.382,0.392,0.758,0.799,1.122,1.218c0.723,0.852,1.544,1.625,2.315,2.446c0.769,0.824,1.586,1.593,2.365,2.38
			c0.838,0.71,1.586,1.51,2.385,2.19c0.824,0.637,1.557,1.362,2.32,1.945c0.78,0.554,1.485,1.147,2.168,1.65
			c0.71,0.443,1.352,0.889,1.929,1.288c0.57,0.41,1.123,0.649,1.555,0.919c0.877,0.509,1.387,0.833,1.387,0.834l-0.051,0.182
			c0,0-0.55-0.191-1.511-0.528c-0.473-0.188-1.084-0.324-1.714-0.655c-0.64-0.309-1.359-0.657-2.146-1.039
			c-0.761-0.424-1.556-0.938-2.412-1.454c-0.845-0.534-1.67-1.196-2.558-1.828c-0.861-0.668-1.702-1.42-2.583-2.152
			c-0.824-0.794-1.688-1.575-2.498-2.407c-0.782-0.859-1.608-1.681-2.332-2.568c-0.746-0.866-1.472-1.727-2.133-2.592
			c-0.685-0.848-1.301-1.702-1.892-2.505c-0.594-0.801-1.111-1.592-1.611-2.304c-1.938-2.896-3.047-4.94-3.047-4.94L296.799,483.021
			z"/>
	</g>
	<g>
		<path fill="#1B2738" d="M222.773,154.533c0,0,6.279-13.801,23.056-2.975C245.829,151.558,230.969,150.248,222.773,154.533z"/>
	</g>
	<g>
		<path fill="#1B2738" d="M254.991,152.748c0,0,11.551-11.689,22.962,1.785C277.953,154.533,264.391,150.487,254.991,152.748z"/>
	</g>
	<g>
		<ellipse fill="#1B2738" cx="232.794" cy="163.32" rx="3.369" ry="5.615"/>
	</g>
	<g>
		<ellipse fill="#1B2738" cx="266.427" cy="163.32" rx="3.37" ry="5.615"/>
	</g>
	<g>
		<path fill="#E26A5A" d="M232.173,192.041c0,0,0.144,0.036,0.404,0.078c0.252,0.054,0.655,0.08,1.121,0.176
			c0.475,0.065,1.052,0.146,1.713,0.238c0.648,0.079,1.38,0.167,2.176,0.264c0.787,0.07,1.638,0.147,2.538,0.227
			c0.896,0.07,1.833,0.109,2.799,0.165c0.959,0.105,1.97-0.002,2.973,0.085c1.008,0.036,2.038-0.021,3.062-0.026
			c1.028-0.043,2.06-0.043,3.074-0.114c1.008-0.129,2.022-0.101,2.998-0.192c0.968-0.138,1.926-0.179,2.838-0.242
			c0.902-0.099,1.766-0.204,2.575-0.262c0.806-0.084,1.567-0.105,2.226-0.199c0.66-0.087,1.258-0.116,1.749-0.153
			c0.487-0.045,0.894-0.031,1.162-0.044c0.271-0.006,0.416-0.01,0.416-0.01l0.106,0.266c0,0-0.514,0.192-1.412,0.529
			c-0.45,0.169-0.995,0.374-1.623,0.609c-0.619,0.256-1.345,0.462-2.14,0.683c-0.796,0.216-1.646,0.493-2.564,0.707
			c-0.926,0.193-1.9,0.396-2.91,0.607c-1.016,0.168-2.076,0.289-3.149,0.441c-1.076,0.111-2.178,0.15-3.275,0.229
			c-1.102-0.022-2.203-0.006-3.286-0.078c-1.08-0.098-2.146-0.147-3.165-0.329c-0.51-0.08-1.015-0.14-1.503-0.233
			c-0.485-0.102-0.961-0.203-1.423-0.301c-0.927-0.196-1.785-0.457-2.577-0.685c-0.787-0.255-1.505-0.498-2.121-0.763
			c-0.629-0.238-1.152-0.503-1.592-0.701c-0.863-0.43-1.335-0.726-1.335-0.726L232.173,192.041z"/>
	</g>
	<g>
		<path fill="#E26A5A" d="M249.613,160.844c0,0,0.041,0.469,0.036,1.293c-0.018,0.822-0.035,2.004-0.215,3.411
			c-0.182,1.403-0.438,3.044-0.925,4.76c-0.247,0.856-0.531,1.733-0.874,2.607c-0.188,0.431-0.378,0.865-0.567,1.301
			c-0.205,0.43-0.433,0.851-0.648,1.278c-0.473,0.835-1.034,1.637-1.459,2.385c-0.411,0.728-0.743,1.642-0.401,2.05
			c0.151,0.225,0.521,0.347,0.884,0.43c0.371,0.08,0.771,0.093,1.158,0.097c0.778-0.004,1.531-0.083,2.222-0.175
			c1.392-0.192,2.554-0.353,3.364-0.466c0.819-0.104,1.292-0.094,1.292-0.094s-0.464,0.073-1.258,0.276
			c-0.798,0.182-1.919,0.531-3.309,0.813c-0.695,0.141-1.454,0.278-2.286,0.34c-0.417,0.024-0.851,0.043-1.314-0.021
			c-0.448-0.07-0.987-0.188-1.397-0.665c-0.414-0.489-0.415-1.153-0.303-1.637c0.112-0.509,0.306-0.958,0.543-1.391
			c0.479-0.858,0.989-1.601,1.433-2.403c0.211-0.407,0.436-0.808,0.637-1.218c0.188-0.417,0.375-0.834,0.561-1.247
			c0.167-0.422,0.331-0.841,0.493-1.255c0.147-0.421,0.29-0.837,0.432-1.247c0.253-0.829,0.503-1.631,0.699-2.405
			c0.199-0.773,0.368-1.511,0.498-2.197c0.262-1.372,0.464-2.525,0.558-3.339C249.571,161.312,249.613,160.844,249.613,160.844z"/>
	</g>
	<g>
		<path fill="#6F36BC" d="M181.066,478.659h-0.057c-0.076,0.01-0.143,0.019-0.219,0.019c-0.095,0-0.19,0-0.285-0.009
			c-6.549-0.467-10.433-22.531-10.719-24.234c0-0.01-0.009-0.029-0.009-0.038c-0.01-0.048-0.01-0.067-0.01-0.067h0.01l11.802,4.417
			C181.58,458.746,187.605,477.964,181.066,478.659z"/>
	</g>
	<g>
		<polygon fill="#FAA18B" points="169.046,872.34 167.54,908.273 190.888,911.365 193.398,872.34 		"/>
	</g>
	<g>
		<polygon fill="#FAA18B" points="320.032,880.432 324.031,903.514 345.893,903.514 344.291,879.479 		"/>
	</g>
	<g>
		<rect x="163.733" y="859.967" fill="#474747" width="35.456" height="14.277"/>
	</g>
	<g>
		<rect x="311.744" y="868.85" fill="#474747" width="35.456" height="14.277"/>
	</g>
	<g>
		<path fill="#FAA18B" d="M310.729,897.068"/>
	</g>
	<g>
		<path fill="#693AAD" d="M168.081,894.949c0,0,8.239,9.039,23.875,1.188c0,0,6.16,21.893,5.686,26.891
			c-0.408,4.309-57.884,1.188-73.713,0.244c-2.529-0.15-11.331-7.672,0.744-13.174C139.124,903.514,168.081,894.949,168.081,894.949
			z"/>
	</g>
	<g>
		<path fill="#693AAD" d="M322.532,894.949c0,0,7.918,9.039,22.948,1.188c0,0,5.919,21.893,5.465,26.891
			c-0.395,4.322-56.015,1.164-71.006,0.234c-2.336-0.145-13.023-6.58,0.869-13.164C294.699,903.514,322.532,894.949,322.532,894.949
			z"/>
	</g>
	<g>
		<path fill-rule="evenodd" clip-rule="evenodd" fill="#AB88FF" d="M200.963,119.771l-23.791-10.534
			c-9.336,7.338-21.237,11.541-34.045,11.064c-28.744-1.059-51.185-25.24-50.117-53.96c1.072-28.717,25.229-51.163,53.971-50.101
			c28.719,1.058,51.149,25.229,50.085,53.953c-0.369,9.916-3.501,19.096-8.615,26.813
			C191.653,109.632,200.963,119.771,200.963,119.771z"/>
		<path fill-rule="evenodd" clip-rule="evenodd" fill="#F8F6F6" d="M118.921,67.299c0.149-3.994,3.495-7.114,7.483-6.965
			c4.016,0.148,7.129,3.513,6.984,7.503c-0.154,3.992-3.501,7.12-7.5,6.968C121.892,74.666,118.784,71.301,118.921,67.299z"/>
		<path fill-rule="evenodd" clip-rule="evenodd" fill="#F8F6F6" d="M137.903,68.005c0.148-3.998,3.517-7.107,7.519-6.973
			c3.981,0.155,7.102,3.501,6.967,7.506c-0.157,3.996-3.516,7.118-7.496,6.962C140.887,75.36,137.776,72.003,137.903,68.005z"/>
		<path fill-rule="evenodd" clip-rule="evenodd" fill="#F8F6F6" d="M157.463,68.737c0.148-4.007,3.49-7.126,7.507-6.979
			c3.988,0.147,7.1,3.502,6.953,7.504c-0.139,3.991-3.489,7.113-7.504,6.964C160.426,76.079,157.315,72.725,157.463,68.737z"/>
	</g>
	<path fill="#47298E" d="M385.273,359.533c0,0-0.011,0.055-0.022,0.153c-0.088,0.568-0.448,2.666-1.562,5.518
		c-0.065,0.175-0.143,0.35-0.209,0.514c-0.775,1.902-1.868,4.087-3.42,6.371c-0.011,0.022-0.021,0.033-0.032,0.055
		c-0.011,0.011-0.011,0.021-0.022,0.033c-2.206,3.256-4.666,6.819-7.256,10.217c-0.054,0.077-0.109,0.143-0.164,0.208
		c-2.655,3.497-5.463,6.818-8.337,9.55l-0.011,0.011c-5.661,5.398-8.076,7.605-10.271,8.567l-0.065,0.032h-0.013
		c-0.196,0.088-0.382,0.131-0.557,0.153c-0.021,0.011-0.031,0.011-0.044,0.011c-0.219,0.021-0.426,0.011-0.622-0.055
		c-0.088-0.032-0.164-0.087-0.229-0.164c-0.515-0.612-1.354-1.486-2.372-2.502c0,0,0,0,0-0.011c0-0.602,30.903-31.679,32.958-44.54
		l0.634,1.661l0.393,1.016l0.46,1.202l0.25,0.667L385.273,359.533z"/>
</g>
</svg>
