<?xml version="1.0" encoding="utf-8"?>
<!-- Generator: Adobe Illustrator 16.0.0, SVG Export Plug-In . SVG Version: 6.00 Build 0)  -->
<!DOCTYPE svg PUBLIC "-//W3C//DTD SVG 1.1//EN" "http://www.w3.org/Graphics/SVG/1.1/DTD/svg11.dtd">
<svg version="1.1" id="Layer_1" xmlns="http://www.w3.org/2000/svg" xmlns:xlink="http://www.w3.org/1999/xlink" x="0px" y="0px"
	 width="120px" height="120px" viewBox="0 0 120 120" enable-background="new 0 0 120 120" xml:space="preserve">
<path fill-rule="evenodd" clip-rule="evenodd" fill="#6F36BC" d="M96.749,60.546c0,11.644-0.018,23.287,0.031,34.93
	c0.005,1.086-0.219,1.306-1.305,1.304c-23.408-0.039-46.815-0.039-70.224,0c-1.085,0.002-1.306-0.218-1.304-1.303
	c0.039-23.408,0.039-46.816,0-70.225c-0.002-1.086,0.219-1.306,1.304-1.304c23.408,0.039,46.815,0.039,70.224,0
	c1.086-0.002,1.31,0.218,1.305,1.304C96.731,37.017,96.749,48.781,96.749,60.546z M38.167,37.843
	c-0.227-0.007-0.407,0.038-0.375,0.327c-0.029,0.662-0.085,1.323-0.085,1.985c-0.006,11.057-0.011,22.112,0,33.169
	c0.003,3.199,0.056,6.398,0.085,9.599c-0.039,0.295,0.145,0.335,0.373,0.325C45.442,83.511,52.722,83.42,60,83.294
	c0.292,0.038,0.334-0.155,0.347-0.375c0.37-0.621,0.191-1.304,0.192-1.955c0.012-10.791,0.009-21.582,0.008-32.374
	c0-0.896-0.22-1.818,1.28-1.772c3.512,0.107,7.027,0.079,10.541,0.105c0.367,0.695,0.889,0.604,1.455,0.287
	c0.775,0.532,0.405,1.335,0.407,2.002c0.026,10.722,0.012,21.444,0.035,32.166c0.001,0.62-0.313,1.33,0.292,1.872
	c0.12,0.015,0.24,0.029,0.361,0.044c2.119,0.031,4.243-0.005,6.357,0.116c1.683,0.095,2.156-0.552,2.148-2.221
	c-0.064-13.583-0.036-27.167-0.036-40.75c0-2.732-0.001-2.735-2.671-2.736c-13.522-0.001-27.046-0.002-40.568,0.006
	C39.488,37.709,38.827,37.797,38.167,37.843z"/>
<path fill-rule="evenodd" clip-rule="evenodd" fill="#CF4A49" d="M72.368,46.923c0.516-0.06,1.083-0.378,1.455,0.287
	C73.257,47.527,72.735,47.618,72.368,46.923z"/>
<path fill-rule="evenodd" clip-rule="evenodd" fill="#FCF5F5" d="M38.167,37.843c-0.125,0.109-0.25,0.218-0.375,0.327
	C37.76,37.881,37.94,37.836,38.167,37.843z"/>
<path fill-rule="evenodd" clip-rule="evenodd" fill="#FCF5F5" d="M37.792,82.923c0.124,0.108,0.248,0.217,0.373,0.325
	C37.937,83.258,37.753,83.218,37.792,82.923z"/>
<path fill-rule="evenodd" clip-rule="evenodd" fill="#FCF5F5" d="M60,83.294c0.115-0.125,0.23-0.251,0.347-0.375
	C60.334,83.139,60.292,83.332,60,83.294z"/>
<path fill-rule="evenodd" clip-rule="evenodd" fill="#FCF5F5" d="M74.558,83.25c0.12,0.015,0.24,0.029,0.361,0.044
	C74.798,83.279,74.678,83.265,74.558,83.25z"/>
</svg>
